<mxfile host="app.diagrams.net">
  <diagram name="Java Stream Flow" id="diagram-1">
    <mxGraphModel dx="1046" dy="618" grid="1" gridSize="10" guides="1" tooltips="1" connect="1" arrows="1" fold="1" page="1" pageScale="1" pageWidth="827" pageHeight="1169">
      <root>
        <mxCell id="0" />
        <mxCell id="1" parent="0" />
        
        <mxCell id="2" value="int[] arr = {4, 2, 1, 3, 2}" style="rounded=1;whiteSpace=wrap;html=1;" vertex="1" parent="1">
          <mxGeometry x="60" y="60" width="200" height="40" as="geometry"/>
        </mxCell>

        <mxCell id="3" value="stream()" style="shape=arrow;direction=south;fillColor=#ffffff;strokeColor=#000000;" vertex="1" parent="1">
          <mxGeometry x="135" y="100" width="50" height="30" as="geometry"/>
        </mxCell>

        <mxCell id="4" value="[4, 2, 1, 3, 2] (IntStream)" style="rounded=1;whiteSpace=wrap;html=1;" vertex="1" parent="1">
          <mxGeometry x="60" y="140" width="200" height="40" as="geometry"/>
        </mxCell>

        <mxCell id="5" value="boxed()" style="shape=arrow;direction=south;fillColor=#ffffff;strokeColor=#000000;" vertex="1" parent="1">
          <mxGeometry x="135" y="180" width="50" height="30" as="geometry"/>
        </mxCell>

        <mxCell id="6" value="[4, 2, 1, 3, 2] (Stream&lt;Integer&gt;)" style="rounded=1;whiteSpace=wrap;html=1;" vertex="1" parent="1">
          <mxGeometry x="60" y="220" width="200" height="40" as="geometry"/>
        </mxCell>

        <mxCell id="7" value="distinct()" style="shape=arrow;direction=south;fillColor=#ffffff;strokeColor=#000000;" vertex="1" parent="1">
          <mxGeometry x="135" y="260" width="50" height="30" as="geometry"/>
        </mxCell>

        <mxCell id="8" value="[4, 2, 1, 3]" style="rounded=1;whiteSpace=wrap;html=1;" vertex="1" parent="1">
          <mxGeometry x="60" y="300" width="200" height="40" as="geometry"/>
        </mxCell>

        <mxCell id="9" value="sorted(Comparator.reverseOrder())" style="shape=arrow;direction=south;fillColor=#ffffff;strokeColor=#000000;" vertex="1" parent="1">
          <mxGeometry x="70" y="340" width="180" height="30" as="geometry"/>
        </mxCell>

        <mxCell id="10" value="[4, 3, 2, 1]" style="rounded=1;whiteSpace=wrap;html=1;" vertex="1" parent="1">
          <mxGeometry x="60" y="380" width="200" height="40" as="geometry"/>
        </mxCell>

        <mxCell id="11" value="mapToInt(Integer::intValue)" style="shape=arrow;direction=south;fillColor=#ffffff;strokeColor=#000000;" vertex="1" parent="1">
          <mxGeometry x="70" y="420" width="180" height="30" as="geometry"/>
        </mxCell>

        <mxCell id="12" value="int[] {4, 3, 2, 1}" style="rounded=1;whiteSpace=wrap;html=1;" vertex="1" parent="1">
          <mxGeometry x="60" y="460" width="200" height="40" as="geometry"/>
        </mxCell>

      </root>
    </mxGraphModel>
  </diagram>
</mxfile>
